<svg xmlns="http://www.w3.org/2000/svg" xmlns:xlink="http://www.w3.org/1999/xlink" version="1.1" id="Layer_1" x="0px" y="0px" style="enable-background:new 0 0 1200 1200;" xml:space="preserve" viewBox="200.05 491.18 806.48 208.08"    width="200" 
   height="60">
<style type="text/css">
	.st0{fill:#00AEEF;}
	.st1{fill:#414042;}
</style>
<path class="st0" d="M386.99,608.31l21.16-5.49V587.6l-21.15-5.46l0,0l-2.59-0.68c-0.91-4.88-2.21-9.72-3.87-14.45l1.93-1.91  l-2.96,0.02l0-0.01l2.97-0.03l15.5-15.28l-7.57-13.21l-21.04,5.82l0,0.01l-2.68,0.74c-3.17-3.91-6.75-7.43-10.51-10.64l0.7-2.57l0,0  l5.81-21.02l-13.21-7.6l-15.27,15.55l-0.02,2.95l0,0l0.02-2.95l-1.91,1.94c-4.71-1.74-9.54-3.03-14.43-3.9l-0.69-2.65l0,0  l-5.45-21.09h-15.31l-5.41,21.12l1.49,2.64l0,0l-1.49-2.64l-0.68,2.64c-4.9,0.81-9.73,2.11-14.44,3.88l-1.95-1.98v0l-15.28-15.53  l-13.19,7.62l5.82,21.02l2.57,1.51l0,0l-2.57-1.51l0.72,2.62c-3.89,3.24-7.43,6.76-10.62,10.62l-2.55-0.71l0,0l-21.05-5.85  l-7.61,13.16l15.59,15.33l2.88,0.02l0,0l-2.88-0.02l1.92,1.89c-1.75,4.67-3.05,9.54-3.91,14.45l-2.6,0.68l0,0l-21.13,5.48v15.22  l21.11,5.49l2.57-1.46l0,0l-2.56,1.45l2.62,0.68c0.81,4.87,2.12,9.7,3.88,14.43l-1.95,1.92h0l-15.55,15.28l7.63,13.19l21-5.81  l1.47-2.5l0,0l-1.47,2.5l2.62-0.72c3.23,3.89,6.75,7.45,10.59,10.62l-0.71,2.57l2.46-1.45l0,0l-2.46,1.45l-5.84,21.05l13.17,7.61  l15.33-15.58v0l1.9-1.93c4.66,1.75,9.52,3.04,14.45,3.9l0.68,2.6l1.42-2.51l0,0l-1.42,2.51l5.48,21.13h15.23l5.47-21.11l-1.43-2.53  h0l1.44,2.53l0.68-2.62c4.88-0.81,9.72-2.1,14.46-3.9l1.89,1.94l-0.02-2.84l0,0l0.02,2.84l15.26,15.58l13.26-7.64l-5.8-20.96l0,0  l-0.74-2.67c3.9-3.22,7.39-6.75,10.56-10.57l2.63,0.73l0,0l20.95,5.83l7.64-13.21l-15.49-15.29h0l-1.96-1.94  c1.65-4.65,3.03-9.54,3.79-14.43L386.99,608.31l-2.57-1.46l0,0L386.99,608.31z M261.5,595.27c0-23.52,19.07-42.59,42.59-42.59  c23.52,0,42.59,19.06,42.59,42.59c0,23.52-19.07,42.59-42.59,42.59C280.57,637.86,261.5,618.79,261.5,595.27z"/>
<g>
	<path class="st1" d="M452.84,651.93c0,3.81-2.43,6.01-6.67,6.01h-4.21v7.07h-2.66v-19.09h6.87   C450.41,645.92,452.84,648.13,452.84,651.93z M450.21,651.96c0-1.8-0.52-3.64-4.27-3.64h-3.98v7.27h3.98   C449.69,655.6,450.21,653.76,450.21,651.96z"/>
	<path class="st1" d="M473.71,655.45c0,8.1-4.84,9.79-8.87,9.79s-8.87-1.69-8.87-9.79c0-8.1,4.84-9.79,8.87-9.79   S473.71,647.35,473.71,655.45z M471.04,655.45c0-6.56-3.32-7.39-6.21-7.39s-6.21,0.83-6.21,7.39c0,6.55,3.32,7.38,6.21,7.38   S471.04,662.01,471.04,655.45z"/>
	<path class="st1" d="M502.16,645.92l-6.13,19.09h-2.72l-4.47-14.34l-4.49,14.34h-2.72l-6.13-19.09h2.78l4.72,15.23l4.69-15.23h2.26   l4.72,15.23l4.69-15.23H502.16z"/>
	<path class="st1" d="M507.88,648.41v5.81h8.62v2.49h-8.62v5.81h9.79v2.49h-12.45v-19.09h12.45v2.49H507.88z"/>
	<path class="st1" d="M536.36,665.01h-3.15l-4.61-7.24h-4.29v7.24h-2.66v-19.09h7.04c4.18,0,6.87,2,6.87,5.78   c0,3.41-2.15,5.04-4.27,5.64L536.36,665.01z M532.89,651.79c0-1.72-0.77-3.49-4.44-3.49h-4.15v6.96h4.27   C532.24,655.25,532.89,653.51,532.89,651.79z"/>
	<path class="st1" d="M542.45,648.41v5.81h8.62v2.49h-8.62v5.81h9.79v2.49h-12.45v-19.09h12.45v2.49H542.45z"/>
	<path class="st1" d="M571.25,655.48c0,6.24-3.09,9.53-8.96,9.53h-6.1v-19.09h6.1C568.16,645.92,571.25,649.21,571.25,655.48z    M568.61,655.48c0-4.98-2.09-7.21-6.76-7.21h-3.01v14.4h3.01C566.52,662.67,568.61,660.43,568.61,655.48z"/>
	<path class="st1" d="M599.15,659.55c0,2.12-0.89,5.47-6.84,5.47h-7.16v-19.09h6.61c5.47,0,6.27,3.21,6.27,5.21   c0,2.95-2.26,3.89-2.26,3.89S599.15,656.08,599.15,659.55z M587.82,653.99h3.92c2.09,0,3.64-0.49,3.64-2.78   c0-2.32-1.52-2.92-3.89-2.92h-3.66V653.99z M596.49,659.43c0-2.55-1.95-3.06-4.55-3.06h-4.12v6.3l4.32-0.03   C595.03,662.64,596.49,661.75,596.49,659.43z"/>
	<path class="st1" d="M610.77,656.46v8.56h-2.63v-8.53l-7.24-10.56h3.21l5.35,7.81l5.35-7.81h3.24L610.77,656.46z"/>
</g>
<g>
	<path class="st1" d="M630.03,653.96c0-2.4,0.28-4.51,0.84-6.32c0.56-1.81,1.27-3.26,2.16-4.34c0.88-1.08,1.94-1.96,3.18-2.64   c1.25-0.68,2.46-1.13,3.65-1.36c1.19-0.23,2.47-0.34,3.84-0.34c1.38,0,2.65,0.11,3.84,0.34c1.18,0.23,2.4,0.68,3.65,1.36   c1.24,0.68,2.31,1.56,3.21,2.64c0.89,1.08,1.62,2.53,2.18,4.34c0.56,1.81,0.84,3.92,0.84,6.32c0,2.38-0.28,4.48-0.84,6.32   c-0.56,1.83-1.28,3.28-2.18,4.35c-0.9,1.07-1.97,1.94-3.21,2.62c-1.25,0.68-2.46,1.14-3.65,1.37c-1.19,0.23-2.47,0.34-3.84,0.34   c-1.37,0-2.65-0.11-3.84-0.34c-1.19-0.23-2.4-0.68-3.65-1.37c-1.25-0.68-2.31-1.55-3.18-2.62c-0.88-1.06-1.6-2.52-2.16-4.35   C630.31,658.45,630.03,656.34,630.03,653.96z M635.31,653.92c0,2.2,0.22,4.02,0.65,5.46c0.44,1.44,1.08,2.5,1.93,3.18   s1.72,1.14,2.62,1.38c0.89,0.24,1.96,0.36,3.18,0.36c1,0,1.87-0.07,2.6-0.2s1.48-0.4,2.25-0.82c0.77-0.42,1.4-1.01,1.89-1.76   c0.48-0.75,0.89-1.77,1.21-3.05c0.32-1.28,0.49-2.81,0.49-4.56c0-2.17-0.22-3.98-0.65-5.42c-0.44-1.44-1.09-2.5-1.95-3.18   c-0.87-0.68-1.74-1.13-2.62-1.36c-0.88-0.23-1.95-0.34-3.21-0.34c-0.97,0-1.82,0.07-2.55,0.2c-0.73,0.13-1.48,0.41-2.26,0.84   c-0.78,0.43-1.41,1.01-1.89,1.73c-0.48,0.73-0.88,1.73-1.2,3C635.47,650.65,635.31,652.16,635.31,653.92z"/>
	<path class="st1" d="M663.03,668.62v-29.31H674c3.47,0,6.15,0.85,8.04,2.55c1.9,1.7,2.84,4.13,2.84,7.27   c0,3.15-0.95,5.57-2.84,7.27c-1.89,1.69-4.57,2.54-8.04,2.54h-5.68v9.68H663.03z M668.31,654.2h5.28c2.32,0,3.9-0.42,4.74-1.28   c0.85-0.86,1.27-2.12,1.27-3.79c0-1.65-0.42-2.9-1.27-3.74c-0.85-0.84-2.43-1.26-4.73-1.26h-5.28V654.2z"/>
	<path class="st1" d="M686.31,644.59v-5.28h24.03v5.28h-9.4v24.03h-5.28v-24.03H686.31z"/>
	<path class="st1" d="M714.19,668.62v-29.31h5.28v29.31H714.19z"/>
	<path class="st1" d="M726.18,668.62v-29.31h18.45v3.82h-14.36v8.93h12.64v3.82h-12.64v12.74H726.18z"/>
	<path class="st1" d="M749.42,668.62v-29.31h4.1v25.49h14.55v3.82H749.42z"/>
	<path class="st1" d="M772.29,668.62v-29.31h19.12v3.82h-15.02v8.93h13.22v3.82h-13.22v8.92h15.02v3.82H772.29z"/>
	<path class="st1" d="M796.58,668.62v-29.31h19.12v3.82h-15.02v8.93h13.22v3.82h-13.22v8.92h15.02v3.82H796.58z"/>
	<path class="st1" d="M819.47,643.12v-3.82h23.82v3.82h-9.89v25.49h-4.1v-25.49H819.47z"/>
</g>
<g>
	<path class="st1" d="M495.13,597.71v14.51c-7.78,3.11-16.46,5.18-26.18,5.18c-18.4,0-40.3-7.65-40.3-44.32s21.9-44.32,40.3-44.32   c9.72,0,18.4,2.07,26.18,5.18v14.51c-7.26-3.37-15.42-5.7-24.75-5.7c-13.61,0-26.18,3.63-26.18,30.32s12.57,30.33,26.18,30.33   C479.71,603.41,487.87,601.08,495.13,597.71z"/>
	<path class="st1" d="M566.41,595.64h-36.54l-7.91,20.73h-16.72l34.34-86.44h17.11l34.34,86.44h-16.72L566.41,595.64z    M560.96,581.51l-12.83-33.95l-12.96,33.95H560.96z"/>
	<path class="st1" d="M672.03,616.37h-18.79l-20.61-30.45h-14v30.45h-15.55v-86.44h33.18c19.96,0,32.01,9.72,32.01,27.73   c0,16.46-10.5,23.07-18.92,25.66L672.03,616.37z M635.87,571.66c8.94,0,16.85-2.07,16.85-13.61c0-11.66-7.91-13.61-16.85-13.61   h-17.24v27.21H635.87z"/>
	<path class="st0" d="M746.94,556.63c0,17.24-10.63,26.7-29.94,26.7h-21.38v33.05h-9.33v-86.44H717   C736.31,529.93,746.94,539.39,746.94,556.63z M737.61,556.63c0-8.29-2.46-17.75-21.77-17.75h-20.22v35.51h20.22   C735.15,574.38,737.61,564.92,737.61,556.63z"/>
	<path class="st0" d="M826.9,616.37h-11.01l-22.55-34.86h-22.03v34.86h-9.33v-86.44h31.75c18.66,0,29.29,8.55,29.29,25.14   c0,19.83-15.81,24.23-19.83,25.01L826.9,616.37z M813.68,555.72c0-7.91-2.33-16.98-20.48-16.98h-21.9v33.95h21.9   C811.35,572.7,813.68,563.63,813.68,555.72z"/>
	<path class="st0" d="M852.17,529.93v86.44h-9.33v-86.44H852.17z"/>
	<path class="st0" d="M910.62,608.6c8.81,0,17.24-1.68,25.27-5.05v8.94c-8.29,3.24-17.24,4.92-26.31,4.92   c-26.57,0-40.04-14.9-40.04-44.32c0-29.42,13.48-44.32,40.04-44.32c9.2,0,18.01,1.68,26.31,5.05v8.94   c-8.04-3.37-16.46-5.18-25.27-5.18c-21.9,0-31.75,11.02-31.75,35.51C878.87,597.71,888.72,608.6,910.62,608.6z"/>
	<path class="st0" d="M961.3,568.55h39.79v9.07H961.3v29.94h45.23v8.81h-54.56v-86.44h54.56v8.81H961.3V568.55z"/>
</g>
</svg>